<?xml version="1.0" encoding="UTF-8" standalone="no"?>
<!-- Generator: Adobe Illustrator 15.1.0, SVG Export Plug-In . SVG Version: 6.00 Build 0)  -->

<svg
   xmlns:dc="http://purl.org/dc/elements/1.1/"
   xmlns:cc="http://creativecommons.org/ns#"
   xmlns:rdf="http://www.w3.org/1999/02/22-rdf-syntax-ns#"
   xmlns:svg="http://www.w3.org/2000/svg"
   xmlns="http://www.w3.org/2000/svg"
   xmlns:sodipodi="http://sodipodi.sourceforge.net/DTD/sodipodi-0.dtd"
   xmlns:inkscape="http://www.inkscape.org/namespaces/inkscape"
   version="1.1"
   id="Layer_1"
   x="0px"
   y="0px"
   width="612px"
   height="792px"
   viewBox="0 0 612 792"
   enable-background="new 0 0 612 792"
   xml:space="preserve"
   inkscape:version="0.48.2 r9819"
   sodipodi:docname="HCIL Logo black.svg"><metadata
   id="metadata25"><rdf:RDF><cc:Work
       rdf:about=""><dc:format>image/svg+xml</dc:format><dc:type
         rdf:resource="http://purl.org/dc/dcmitype/StillImage" /></cc:Work></rdf:RDF></metadata><defs
   id="defs23" /><sodipodi:namedview
   pagecolor="#ffffff"
   bordercolor="#666666"
   borderopacity="1"
   objecttolerance="10"
   gridtolerance="10"
   guidetolerance="10"
   inkscape:pageopacity="0"
   inkscape:pageshadow="2"
   inkscape:window-width="918"
   inkscape:window-height="582"
   id="namedview21"
   showgrid="false"
   inkscape:zoom="0.45959596"
   inkscape:cx="160.69188"
   inkscape:cy="396"
   inkscape:window-x="193"
   inkscape:window-y="86"
   inkscape:window-maximized="0"
   inkscape:current-layer="g7" />

<g
   id="g5">
	<g
   id="g7">
		<path
   clip-rule="evenodd"
   d="m 380.27709,241.96504 c 99.6936,-80.09323 199.57224,19.25674 178.56429,83.24322 -11.19015,34.07927 29.9094,65.93373 24.82317,81.04703 -2.90327,8.6217 -23.03232,9.07327 -23.03232,9.07327 -0.002,0 3.57513,29.97328 -2.90106,69.13879 -13.08454,53.1774 -74.61931,5.74266 -79.23194,4.40116 -64.73982,-19.51447 -26.28582,57.01466 -63.43577,108.50474 l 56.03441,-3.8681 c -0.3216,-60.41355 -3.97161,-78.56889 28.14938,-73.21613 32.11659,5.35276 63.86312,22.29437 74.1281,-54.55855 0.32821,-2.46051 0.45597,-41.49606 0.45597,-41.49606 0,0 12.90171,-3.03764 23.21074,-7.00485 19.8603,-7.63705 -27.49956,-39.80871 -24.49276,-84.19702 23.9002,-50.33581 -54.48807,-195.21072 -211.17871,-114.36855 l 18.9065,23.30105 0,0 z"
   id="path9"
   inkscape:connector-curvature="0"
   style="fill-rule:evenodd;stroke:#000000;stroke-width:6.60835266" />
		<polygon
   points="185.888,436.926 167.035,436.926 167.035,367.255 167.035,367.255 185.888,367.255 185.888,393.906 208.187,393.906 208.187,367.255 227.04,367.255 227.04,436.926 208.187,436.926 208.187,407.082 185.888,407.082 "
   id="polygon11"
   transform="matrix(2.2027841,0,0,2.2027841,-356.81633,-506.44407)" />
		<path
   d="m 293.89711,452.48953 c -11.83336,2.86141 -25.0082,6.15678 -46.21661,6.15678 -41.52909,0 -89.53217,-20.66872 -89.53217,-78.70989 0,-53.42852 37.95618,-80.03375 89.30749,-80.03375 15.85123,0 31.2597,3.52005 46.21661,7.91901 l -3.35044,33.19816 c -13.39733,-7.25818 -26.34529,-10.77602 -40.63696,-10.77602 -29.47105,0 -48.67271,21.10708 -48.67271,49.6926 0,30.12087 21.65776,48.37095 52.02315,48.37095 13.61981,0 27.4621,-3.52006 38.8505,-7.91681 l 2.01114,32.09897 0,0 z"
   id="path13"
   inkscape:connector-curvature="0" />
		<polygon
   points="304.938,436.926 304.938,367.255 304.938,367.255 323.791,367.255 323.791,436.926 "
   id="polygon15"
   transform="matrix(2.2027841,0,0,2.2027841,-356.81633,-506.44407)" />
		<polygon
   points="356.732,423.15 385.925,423.15 385.925,436.926 337.881,436.926 337.881,367.255 337.881,367.255 356.732,367.255 "
   id="polygon17"
   transform="matrix(2.2027841,0,0,2.2027841,-356.81633,-506.44407)" />
		<path
   clip-rule="evenodd"
   d="m 358.79553,248.23196 c -6.4123,-12.06905 -21.39564,-16.65524 -33.46249,-10.24074 -12.06684,6.41451 -16.65304,21.39565 -10.23854,33.46249 6.41451,12.06906 21.39564,16.65525 33.4625,10.23855 12.06685,-6.4123 16.65084,-21.39344 10.23853,-33.4603 l 0,0 z"
   id="path19"
   style="fill:#db1714;fill-opacity:1;fill-rule:evenodd"
   inkscape:connector-curvature="0" />
	</g>
</g>
</svg>